<?xml version="1.0" encoding="UTF-8"?>
<!DOCTYPE svg PUBLIC "-//W3C//DTD SVG 1.1//EN" "http://www.w3.org/Graphics/SVG/1.1/DTD/svg11.dtd">
<!-- Creator: CorelDRAW 2018 (64-Bit) -->
<svg xmlns="http://www.w3.org/2000/svg" xml:space="preserve" width="200px" height="200px" version="1.1" style="shape-rendering:geometricPrecision; text-rendering:geometricPrecision; image-rendering:optimizeQuality; fill-rule:evenodd; clip-rule:evenodd"
viewBox="0 0 6.03 6.03"
 xmlns:xlink="http://www.w3.org/1999/xlink">
 <defs>
  <style type="text/css">
   <![CDATA[
    .fil3 {fill:none}
    .fil2 {fill:black}
    .fil0 {fill:#FFE31A}
    .fil1 {fill:white}
   ]]>
  </style>
   <clipPath id="id0">
    <path d="M0 0l6.03 0 0 6.03 -6.03 0 0 -6.03z"/>
   </clipPath>
 </defs>
 <g id="Layer_x0020_1">
  <metadata id="CorelCorpID_0Corel-Layer"/>
  <g>
  </g>
  <g style="clip-path:url(#id0)">
   <g>
    <path class="fil0" d="M5.04 2.26c0.29,0.33 0.45,0.76 0.45,1.22 0,1.63 -1.04,1.99 -2.47,1.99 -1.44,0 -2.47,-0.36 -2.47,-1.99 0,-0.46 0.15,-0.89 0.44,-1.22 -0.08,0.05 -0.15,0.11 -0.22,0.17l-0.14 0.16 -0.08 -1.96 0.13 0.05c0.47,0.21 0.88,0.58 1.17,1 0.75,-0.27 1.58,-0.27 2.33,0 0.29,-0.42 0.7,-0.79 1.17,-1l0.14 -0.05 -0.09 1.96 -0.14 -0.16c-0.06,-0.06 -0.14,-0.12 -0.22,-0.17z"/>
    <path class="fil1" d="M2.4 3.17c0,-0.28 -0.19,-0.5 -0.42,-0.5 -0.22,0 -0.41,0.22 -0.41,0.5 0,0.27 0.19,0.5 0.41,0.5 0.23,0 0.42,-0.23 0.42,-0.5z"/>
    <path class="fil1" d="M3.64 3.17c0,0.27 0.18,0.5 0.41,0.5 0.23,0 0.41,-0.23 0.41,-0.5 0,-0.28 -0.18,-0.5 -0.41,-0.5 -0.23,0 -0.41,0.22 -0.41,0.5z"/>
    <path class="fil2" d="M5.66 0.4c-0.64,0.23 -1.11,0.52 -1.53,1.07l-0.01 0.02 -0.02 0c-0.67,-0.22 -1.49,-0.22 -2.17,0l-0.02 0 -0.01 -0.02c-0.42,-0.55 -0.88,-0.84 -1.52,-1.07l0.1 2.45 0 0c-0.06,0.21 -0.09,0.42 -0.09,0.64 0.01,1.71 1.1,2.14 2.63,2.14 1.53,0 2.62,-0.43 2.63,-2.14 0,-0.22 -0.04,-0.43 -0.1,-0.64l0 0 0.11 -2.45zm-2.64 4.03c-0.16,0.2 -0.55,0.15 -0.67,-0.14 -0.01,-0.03 0.02,-0.04 0.03,-0.01 0.12,0.21 0.54,0.2 0.54,0.04 0,-0.05 -0.17,-0.08 -0.17,-0.22 0,-0.11 0.13,-0.15 0.27,-0.15 0.13,0 0.26,0.04 0.26,0.15 0,0.14 -0.16,0.17 -0.16,0.22 0,0.16 0.41,0.17 0.53,-0.04 0.01,-0.03 0.04,-0.02 0.03,0.01 -0.11,0.29 -0.5,0.34 -0.66,0.14zm1.03 -1.76c0.23,0 0.41,0.22 0.41,0.5 0,0.27 -0.18,0.5 -0.41,0.5 -0.23,0 -0.41,-0.23 -0.41,-0.5 0,-0.28 0.18,-0.5 0.41,-0.5zm0.11 0.64c-0.07,0 -0.12,0.05 -0.12,0.12 0,0.06 0.05,0.11 0.12,0.11 0.06,0 0.11,-0.05 0.11,-0.11 0,-0.07 -0.05,-0.12 -0.11,-0.12zm-0.23 -0.5c-0.1,0 -0.18,0.08 -0.18,0.17 0,0.1 0.08,0.18 0.18,0.18 0.1,0 0.18,-0.08 0.18,-0.18 0,-0.09 -0.08,-0.17 -0.18,-0.17zm-1.95 -0.14c0.23,0 0.42,0.22 0.42,0.5 0,0.27 -0.19,0.5 -0.42,0.5 -0.22,0 -0.41,-0.23 -0.41,-0.5 0,-0.28 0.19,-0.5 0.41,-0.5zm0.11 0.64c-0.06,0 -0.11,0.05 -0.11,0.12 0,0.06 0.05,0.11 0.11,0.11 0.07,0 0.12,-0.05 0.12,-0.11 0,-0.07 -0.05,-0.12 -0.12,-0.12zm-0.22 -0.5c-0.1,0 -0.18,0.08 -0.18,0.17 0,0.1 0.08,0.18 0.18,0.18 0.09,0 0.17,-0.08 0.17,-0.18 0,-0.09 -0.08,-0.17 -0.17,-0.17zm2.81 -0.8c0.48,0.34 0.75,0.87 0.75,1.47 0,1.59 -1.01,1.93 -2.41,1.93 -1.41,0 -2.41,-0.34 -2.41,-1.93 0,-0.6 0.26,-1.13 0.74,-1.47 -0.23,0.09 -0.46,0.21 -0.62,0.38l-0.05 0.05 -0.07 -1.72 0.04 0.02c0.48,0.21 0.89,0.59 1.18,1.02 0.76,-0.29 1.61,-0.29 2.38,0 0.28,-0.43 0.69,-0.81 1.17,-1.02l0.04 -0.02 -0.07 1.72 -0.05 -0.05c-0.16,-0.17 -0.39,-0.29 -0.62,-0.38z"/>
   </g>
  </g>
  <polygon class="fil3" points="0,0 6.03,0 6.03,6.03 0,6.03 "/>
 </g>
</svg>
